<svg xmlns="http://www.w3.org/2000/svg" width="26.219" height="31.875" viewBox="0 0 26.219 31.875">
  <defs>
    <style>
      .cls-1 {
        fill: #fff;
        fill-rule: evenodd;
      }
    </style>
  </defs>
  <path id="ла" class="cls-1" d="M0.644,14.635H4.326V0.135h8.889a32.573,32.573,0,0,1,7.253.5C24.1,1.59,26.877,4.862,26.877,9.953c0,5.818-3.727,8.863-7.091,9.59A30.775,30.775,0,0,1,13.533,20H10.494v2.727H25.514v5.363H10.494V32H4.326V28.089H0.644V22.725H4.326V20H0.644V14.635Zm9.85-9.091v9.045h2.357a13.876,13.876,0,0,0,4.662-.5,4.223,4.223,0,0,0,2.727-4.045A4.206,4.206,0,0,0,16.65,5.771a25.037,25.037,0,0,0-4.207-.227H10.494Z" transform="translate(-0.656 -0.125)"/>
</svg>
